<svg width="24" height="24" viewBox="0 0 24 24" fill="none" xmlns="http://www.w3.org/2000/svg">
<mask id="path-1-inside-1_295_20685">
<path d="M22.7992 12.0002C22.7992 17.9649 17.9639 22.8002 11.9992 22.8002C6.03454 22.8002 1.19922 17.9649 1.19922 12.0002C1.19922 6.03552 6.03454 1.2002 11.9992 1.2002C17.9639 1.2002 22.7992 6.03552 22.7992 12.0002Z"/>
</mask>
<path d="M11.9992 21.8002C11.6777 21.8002 11.2926 21.6555 10.8551 21.2325C10.4128 20.8049 9.96884 20.1379 9.5743 19.2361C8.78651 17.4355 8.27422 14.878 8.27422 12.0002H6.27422C6.27422 15.0871 6.81965 17.9296 7.74198 20.0378C8.2025 21.0904 8.77667 22.005 9.46497 22.6704C10.1581 23.3405 11.016 23.8002 11.9992 23.8002V21.8002ZM8.27422 12.0002C8.27422 9.12242 8.78651 6.56491 9.5743 4.76426C9.96884 3.86245 10.4128 3.19545 10.8551 2.76786C11.2926 2.34493 11.6777 2.2002 11.9992 2.2002V0.200195C11.016 0.200195 10.1581 0.659878 9.46497 1.32996C8.77667 1.9954 8.2025 2.91002 7.74198 3.96262C6.81965 6.07081 6.27422 8.91329 6.27422 12.0002H8.27422ZM11.9992 23.8002C12.9825 23.8002 13.8404 23.3405 14.5335 22.6704C15.2218 22.005 15.7959 21.0904 16.2565 20.0378C17.1788 17.9296 17.7242 15.0871 17.7242 12.0002H15.7242C15.7242 14.878 15.2119 17.4355 14.4241 19.2361C14.0296 20.1379 13.5856 20.8049 13.1433 21.2325C12.7059 21.6555 12.3207 21.8002 11.9992 21.8002V23.8002ZM17.7242 12.0002C17.7242 8.91329 17.1788 6.07081 16.2565 3.96262C15.7959 2.91002 15.2218 1.9954 14.5335 1.32996C13.8404 0.659878 12.9825 0.200195 11.9992 0.200195V2.2002C12.3207 2.2002 12.7059 2.34493 13.1433 2.76786C13.5856 3.19545 14.0296 3.86245 14.4241 4.76426C15.2119 6.56491 15.7242 9.12242 15.7242 12.0002H17.7242ZM3.72115 18.1173C5.49417 17.102 8.58888 16.3752 12.2109 16.3752V14.3752C8.3913 14.3752 4.91145 15.131 2.72729 16.3817L3.72115 18.1173ZM12.2109 16.3752C15.9974 16.3752 19.1962 17.1691 20.9184 18.2477L21.98 16.5527C19.8143 15.1963 16.1909 14.3752 12.2109 14.3752V16.3752ZM2.72729 7.61869C4.91145 8.8694 8.3913 9.62519 12.2109 9.62519V7.6252C8.58888 7.6252 5.49417 6.89839 3.72115 5.8831L2.72729 7.61869ZM12.2109 9.62519C16.1909 9.62519 19.8143 8.80411 21.98 7.44769L20.9184 5.7527C19.1962 6.83132 15.9974 7.6252 12.2109 7.6252V9.62519ZM20.7992 12.0002C20.7992 16.8603 16.8593 20.8002 11.9992 20.8002V24.8002C19.0685 24.8002 24.7992 19.0694 24.7992 12.0002H20.7992ZM11.9992 20.8002C7.13911 20.8002 3.19922 16.8603 3.19922 12.0002H-0.800781C-0.800781 19.0694 4.92997 24.8002 11.9992 24.8002V20.8002ZM3.19922 12.0002C3.19922 7.14009 7.13911 3.2002 11.9992 3.2002V-0.799805C4.92997 -0.799805 -0.800781 4.93095 -0.800781 12.0002H3.19922ZM11.9992 3.2002C16.8593 3.2002 20.7992 7.14009 20.7992 12.0002H24.7992C24.7992 4.93095 19.0685 -0.799805 11.9992 -0.799805V3.2002Z"  mask="url(#path-1-inside-1_295_20685)"/>
</svg>
