<svg width="24" height="24" viewBox="0 0 24 24" fill="none" xmlns="http://www.w3.org/2000/svg">
<path d="M20.0001 8.01221L14.0001 2.75221C13.4501 2.26026 12.738 1.98828 12.0001 1.98828C11.2622 1.98828 10.5501 2.26026 10.0001 2.75221L4.00009 8.01221C3.68246 8.29629 3.42899 8.64477 3.25657 9.03446C3.08414 9.42415 2.99671 9.8461 3.00009 10.2722V19.0122C3.00009 19.8079 3.31617 20.5709 3.87877 21.1335C4.44138 21.6961 5.20445 22.0122 6.00009 22.0122H18.0001C18.7957 22.0122 19.5588 21.6961 20.1214 21.1335C20.684 20.5709 21.0001 19.8079 21.0001 19.0122V10.2622C21.0021 9.83778 20.9139 9.41775 20.7416 9.02989C20.5692 8.64204 20.3165 8.29517 20.0001 8.01221V8.01221ZM14.0001 20.0122H10.0001V15.0122C10.0001 14.747 10.1055 14.4926 10.293 14.3051C10.4805 14.1176 10.7349 14.0122 11.0001 14.0122H13.0001C13.2653 14.0122 13.5197 14.1176 13.7072 14.3051C13.8947 14.4926 14.0001 14.747 14.0001 15.0122V20.0122ZM19.0001 19.0122C19.0001 19.2774 18.8947 19.5318 18.7072 19.7193C18.5197 19.9069 18.2653 20.0122 18.0001 20.0122H16.0001V15.0122C16.0001 14.2166 15.684 13.4535 15.1214 12.8909C14.5588 12.3283 13.7957 12.0122 13.0001 12.0122H11.0001C10.2044 12.0122 9.44138 12.3283 8.87877 12.8909C8.31617 13.4535 8.00009 14.2166 8.00009 15.0122V20.0122H6.00009C5.73488 20.0122 5.48052 19.9069 5.29299 19.7193C5.10545 19.5318 5.00009 19.2774 5.00009 19.0122V10.2622C5.00027 10.1202 5.03069 9.97991 5.08931 9.85059C5.14794 9.72127 5.23343 9.60592 5.3401 9.51221L11.3401 4.26221C11.5226 4.10189 11.7572 4.01348 12.0001 4.01348C12.243 4.01348 12.4776 4.10189 12.6601 4.26221L18.6601 9.51221C18.7668 9.60592 18.8523 9.72127 18.9109 9.85059C18.9695 9.97991 18.9999 10.1202 19.0001 10.2622V19.0122Z" fill="black"/>
</svg>
