<svg width="24" height="24" viewBox="0 0 24 24" fill="none" xmlns="http://www.w3.org/2000/svg">
<path d="M20 2C19.8687 1.99993 19.7386 2.02574 19.6172 2.07597C19.4959 2.1262 19.3856 2.19985 19.2927 2.29273C19.1999 2.3856 19.1262 2.49587 19.076 2.61723C19.0257 2.73859 18.9999 2.86866 19 3V3.63672C18.1566 4.68242 17.0907 5.52691 15.8797 6.10872C14.6688 6.69052 13.3434 6.99501 12 7H6C5.20462 7.00087 4.44206 7.31722 3.87964 7.87964C3.31722 8.44206 3.00087 9.20462 3 10V12C3.00087 12.7954 3.31722 13.5579 3.87964 14.1204C4.44206 14.6828 5.20462 14.9991 6 15H6.48379L4.08106 20.6064C4.01576 20.7585 3.98926 20.9244 4.00391 21.0892C4.01857 21.254 4.07393 21.4126 4.16503 21.5508C4.25613 21.689 4.38011 21.8023 4.52585 21.8807C4.67159 21.9591 4.83451 22.0001 5 22H9C9.19575 22.0001 9.38722 21.9427 9.55061 21.8349C9.71399 21.7271 9.84208 21.5736 9.91895 21.3936L12.6427 15.038C13.8733 15.1284 15.0724 15.47 16.1658 16.0419C17.2592 16.6138 18.2238 17.4038 19 18.3631V19C19 19.2652 19.1054 19.5196 19.2929 19.7071C19.4804 19.8946 19.7348 20 20 20C20.2652 20 20.5196 19.8946 20.7071 19.7071C20.8946 19.5196 21 19.2652 21 19V3C21.0001 2.86866 20.9743 2.73859 20.924 2.61723C20.8738 2.49587 20.8001 2.3856 20.7073 2.29272C20.6144 2.19985 20.5041 2.12619 20.3828 2.07597C20.2614 2.02574 20.1313 1.99992 20 2V2ZM6 13C5.73484 12.9998 5.48059 12.8944 5.29309 12.7069C5.10559 12.5194 5.00018 12.2652 5 12V10C5.00018 9.73484 5.10559 9.48059 5.29309 9.29309C5.48059 9.1056 5.73484 9.00018 6 9H7V13H6ZM8.34082 20H6.5166L8.65918 15H10.4834L8.34082 20ZM19 15.5218C17.0283 13.8974 14.5547 13.0063 12 13H9V8.99995H12C14.5547 8.99342 17.0283 8.10211 19 6.47761V15.5218Z" fill="black"/>
</svg>
