<svg width="24" height="24" viewBox="0 0 24 24" xmlns="http://www.w3.org/2000/svg" fill="none">
<path d="M4.80039 20.3998V18.5998C4.80039 17.2743 5.87491 16.1998 7.20039 16.1998H16.8004C18.1259 16.1998 19.2004 17.2743 19.2004 18.5998V20.9998M4.80039 21.5999C3.47491 21.5999 2.40039 20.4688 2.40039 19.0736V4.92622C2.40039 3.53097 3.47491 2.3999 4.80039 2.3999H19.2004C20.5259 2.3999 21.6004 3.53097 21.6004 4.92622V19.0736C21.6004 20.4688 20.5259 21.5999 19.2004 21.5999H4.80039ZM15.0004 8.99978C15.0004 10.6566 13.6572 11.9998 12.0004 11.9998C10.3435 11.9998 9.00039 10.6566 9.00039 8.99978C9.00039 7.34293 10.3435 5.99978 12.0004 5.99978C13.6572 5.99978 15.0004 7.34293 15.0004 8.99978Z" stroke-width="2" stroke-linecap="round" stroke-linejoin="round"/>
</svg>
