<svg width="24" height="24" viewBox="0 0 24 24" fill="none" xmlns="http://www.w3.org/2000/svg">
<path d="M12 2.01074C10.0605 2.01443 8.16393 2.58205 6.54128 3.64448C4.91862 4.70691 3.63994 6.21828 2.86099 7.99451C2.08204 9.77074 1.83643 11.7352 2.15408 13.6485C2.47173 15.5618 3.33893 17.3415 4.65005 18.7707V18.7707C5.58647 19.7858 6.72299 20.5959 7.98799 21.1499C9.25298 21.704 10.619 21.9901 12 21.9901C13.3811 21.9901 14.7471 21.704 16.0121 21.1499C17.2771 20.5959 18.4136 19.7858 19.35 18.7707V18.7707C20.6612 17.3415 21.5284 15.5618 21.846 13.6485C22.1637 11.7352 21.9181 9.77074 21.1391 7.99451C20.3602 6.21828 19.0815 4.70691 17.4588 3.64448C15.8362 2.58205 13.9396 2.01443 12 2.01074V2.01074ZM12 20.0107C9.92851 20.0076 7.93896 19.201 6.45005 17.7607C6.90209 16.6603 7.67108 15.719 8.6593 15.0566C9.64752 14.3942 10.8104 14.0405 12 14.0405C13.1897 14.0405 14.3526 14.3942 15.3408 15.0566C16.329 15.719 17.098 16.6603 17.55 17.7607C16.0611 19.201 14.0716 20.0076 12 20.0107ZM10 10.0107C10 9.61518 10.1173 9.2285 10.3371 8.8996C10.5569 8.5707 10.8692 8.31436 11.2347 8.16298C11.6001 8.01161 12.0023 7.972 12.3902 8.04917C12.7782 8.12634 13.1346 8.31682 13.4143 8.59653C13.694 8.87623 13.8844 9.2326 13.9616 9.62056C14.0388 10.0085 13.9992 10.4107 13.8478 10.7761C13.6964 11.1416 13.4401 11.4539 13.1112 11.6737C12.7823 11.8934 12.3956 12.0107 12 12.0107C11.4696 12.0107 10.9609 11.8 10.5858 11.425C10.2108 11.0499 10 10.5412 10 10.0107ZM18.91 16.0107C18.0166 14.4825 16.6415 13.2938 15 12.6307C15.5092 12.0534 15.841 11.3414 15.9555 10.5802C16.0701 9.81896 15.9625 9.04085 15.6458 8.33924C15.3291 7.63762 14.8166 7.0423 14.17 6.62471C13.5233 6.20711 12.7698 5.98499 12 5.98499C11.2303 5.98499 10.4768 6.20711 9.83014 6.62471C9.18346 7.0423 8.67102 7.63762 8.3543 8.33924C8.03758 9.04085 7.93004 9.81896 8.04458 10.5802C8.15912 11.3414 8.49088 12.0534 9.00005 12.6307C7.35865 13.2938 5.98352 14.4825 5.09005 16.0107C4.37799 14.7978 4.00177 13.4172 4.00005 12.0107C4.00005 9.88901 4.8429 7.85418 6.34319 6.35389C7.84349 4.8536 9.87832 4.01074 12 4.01074C14.1218 4.01074 16.1566 4.8536 17.6569 6.35389C19.1572 7.85418 20 9.88901 20 12.0107C19.9983 13.4172 19.6221 14.7978 18.91 16.0107V16.0107Z" fill="black"/>
</svg>
