<svg width="30" height="30" viewBox="0 0 30 30" fill="none" xmlns="http://www.w3.org/2000/svg">
<g id="image-avatar">
<path id="Icon" d="M6 25.4999V23.2498C6 21.593 7.34315 20.2499 9 20.2499H21C22.6569 20.2499 24 21.593 24 23.2499V26.2499M6 27C4.34315 27 3 25.5862 3 23.8421V6.15789C3 4.41383 4.34315 3 6 3H24C25.6569 3 27 4.41384 27 6.15789V23.8421C27 25.5862 25.6569 27 24 27H6ZM18.75 11.2499C18.75 13.3209 17.0711 14.9999 15 14.9999C12.9289 14.9999 11.25 13.3209 11.25 11.2499C11.25 9.17878 12.9289 7.49985 15 7.49985C17.0711 7.49985 18.75 9.17878 18.75 11.2499Z" stroke="black" stroke-width="2.5" stroke-linecap="round" stroke-linejoin="round"/>
</g>
</svg>
