<svg width="16" height="15" viewBox="0 0 16 15" fill="none" xmlns="http://www.w3.org/2000/svg">
<path d="M6.5 1.5C4.01472 1.5 2 3.51472 2 6C2 8.48528 4.01472 10.5 6.5 10.5C8.98528 10.5 11 8.48528 11 6C11 3.51472 8.98528 1.5 6.5 1.5ZM0.5 6C0.5 2.68629 3.18629 0 6.5 0C9.81371 0 12.5 2.68629 12.5 6C12.5 7.38653 12.0297 8.66322 11.2399 9.67923L15.2803 13.7197C15.5732 14.0126 15.5732 14.4874 15.2803 14.7803C14.9874 15.0732 14.5126 15.0732 14.2197 14.7803L10.1792 10.7399C9.16322 11.5297 7.88653 12 6.5 12C3.18629 12 0.5 9.31371 0.5 6Z" fill="#757575"/>
</svg>
